<?xml version="1.0" encoding="UTF-8"?>
<svg id="_레이어_2" data-name="레이어 2" xmlns="http://www.w3.org/2000/svg" viewBox="0 0 366.69 366.69">
  <defs>
    <style>
      .cls-1 {
        fill: #fff;
      }

      .cls-2 {
        fill: #008b96;
      }

      .cls-3 {
        fill: #004f51;
      }
    </style>
  </defs>
  <g id="_레이어_1-2" data-name="레이어 1">
    <g>
      <circle class="cls-1" cx="183.35" cy="183.35" r="183.35"/>
      <g>
        <g>
          <path class="cls-2" d="M152.39,228.16c-2.99.7-6.36,2.2-9.63,2-16.4-52.16-20.11-27.33-39.18,3.72.19.79.39,1.58.57,2.37-17.98.74-36.44-.86-53.12-8.04h0c-17.07-7.59-29.19-18.66-27.67-38.54h20.31c21.71,0,22.2,43.92,41.5,43.92s19.79-43.92,41.51-43.92v.02c11.78,0,19.39,16.87,25.7,38.48Z"/>
          <path class="cls-2" d="M313.53,276.36c-37.09,54.54-115.3,81.68-180.13,58.98,65.23,8.86,133.94-20.19,174.15-71.88,1.42,3.05,4.54,9.79,5.98,12.9Z"/>
          <path class="cls-2" d="M183.35,23.09C97.08,23.09,26.74,91.32,23.37,176.75h20.31c21.71,0,22.2-43.93,41.5-43.93s19.79,43.93,41.51,43.93c32.68,0,33.41-129.95,62.45-129.95s29.67,119.8,58.67,129.35c4.65-4.14,8.99-8.48,13.14-13.07l-3.65-7.86c-12.19,25.33-21.84-19.5-25.08-30.86,5.39-11.26,15.97-14.45,23.08-3.9,6.38-.09,16.77-.25,23.15-.33,5.59-16.04,16.9-16.35,22.58-.31,6.9-.08,22.35-.32,29.2-.4-24.62-56.67-81.12-96.33-146.89-96.33ZM137.54,151.65h-.02c-14.13,37.75-22.11-5.73-33.94-19.13,6.24-25.26,12.14-50.53,23.63-50.53,9.4,0,15.07,16.92,20.24,36.93-3.01,12.06-6.22,23.69-9.92,32.72Z"/>
        </g>
        <path class="cls-3" d="M348.31,132.53c-6.72,41.8-15.57,97.14-22.31,139.04-2.61-5.59-13.49-29.1-16.29-35.14-20.28,36.59-61.2,68.41-105.01,80.38-13.34,3.8-27.13,6.12-41,6.65-24.75.96-49.87-3.41-72.33-13.95-.62-.17-1.23-.61-1.85-.81-1.34-.65-2.68-1.33-4-2.02-4.5-2.4-8.95-5.01-13.12-7.95-.41-.29-.86-.55-1.26-.85-30.05-18.37-45.55-57.93-59.38-88.62,4.2,9.11,10.91,16.87,19.02,22.7,0,0,.06.01.06.04,33.51,22.96,77.79,20.2,115.71,11.47,49.53-12.58,96.95-38.81,130.11-78.16-3.65-7.88-11-23.75-14.64-31.64,27.71-.38,58.62-.87,86.28-1.16Z"/>
      </g>
    </g>
  </g>
</svg>