<?xml version="1.0" encoding="UTF-8"?>
<svg id="_레이어_2" data-name="레이어 2" xmlns="http://www.w3.org/2000/svg" viewBox="0 0 277.93 277.93">
  <defs>
    <style>
      .cls-1 {
        fill: #fff;
      }
    </style>
  </defs>
  <g id="_레이어_1-2" data-name="레이어 1">
    <g>
      <circle class="cls-1" cx="138.97" cy="138.97" r="138.97"/>
      <g>
        <g>
          <path d="M115.5,172.93c-2.26.53-4.82,1.67-7.3,1.51-12.43-39.53-15.24-20.71-29.69,2.82.15.6.29,1.2.43,1.79-13.63.56-27.62-.65-40.26-6.1h0c-12.94-5.75-22.12-14.15-20.97-29.21h15.39c16.45,0,16.83,33.29,31.45,33.29s15-33.29,31.46-33.29v.02c8.93,0,14.7,12.79,19.48,29.16Z"/>
          <path d="M237.64,209.46c-28.11,41.34-87.39,61.91-136.53,44.7,49.44,6.71,101.52-15.3,131.99-54.48,1.08,2.32,3.44,7.42,4.53,9.78Z"/>
          <path d="M138.97,17.5c-65.39,0-118.7,51.71-121.25,116.46h15.39c16.45,0,16.83-33.3,31.45-33.3s15,33.3,31.46,33.3c24.77,0,25.32-98.5,47.33-98.5s22.49,90.8,44.47,98.04c3.52-3.13,6.82-6.43,9.96-9.91l-2.76-5.96c-9.24,19.2-16.55-14.78-19.01-23.39,4.08-8.54,12.1-10.95,17.49-2.96,4.84-.07,12.71-.19,17.55-.25,4.24-12.16,12.81-12.39,17.11-.23,5.23-.06,16.94-.24,22.13-.3-18.66-42.95-61.48-73.01-111.33-73.01ZM104.25,114.94h-.02c-10.71,28.61-16.76-4.34-25.72-14.5,4.73-19.15,9.2-38.3,17.91-38.3,7.13,0,11.42,12.83,15.34,27.99-2.28,9.14-4.71,17.95-7.52,24.8Z"/>
        </g>
        <path d="M263.99,100.45c-5.1,31.68-11.8,73.62-16.91,105.38-1.98-4.24-10.22-22.05-12.35-26.63-15.37,27.73-46.39,51.85-79.59,60.92-10.11,2.88-20.57,4.64-31.07,5.04-18.76.73-37.8-2.59-54.82-10.58-.47-.13-.93-.46-1.41-.61-1.01-.5-2.03-1-3.03-1.53-3.41-1.82-6.78-3.8-9.95-6.03-.31-.22-.65-.42-.95-.64-22.77-13.92-34.52-43.91-45-67.17,3.18,6.9,8.27,12.79,14.42,17.21,0,0,.04,0,.05.03,25.4,17.4,58.96,15.31,87.7,8.7,37.54-9.54,73.48-29.41,98.61-59.24-2.77-5.97-8.33-18-11.1-23.98,21-.28,44.43-.66,65.4-.88Z"/>
      </g>
    </g>
  </g>
</svg>