<?xml version="1.0" encoding="UTF-8"?>
<svg id="_레이어_2" data-name="레이어 2" xmlns="http://www.w3.org/2000/svg" viewBox="0 0 324.8 309.11">
  <defs>
    <style>
      .cls-1 {
        fill: #008b96;
      }

      .cls-2 {
        fill: #004f51;
      }
    </style>
  </defs>
  <g id="_레이어_1-2" data-name="레이어 1">
    <g>
      <g>
        <path class="cls-1" d="M135.72,197.91c-2.88.68-6.14,2.13-9.29,1.93-15.83-50.34-19.41-26.37-37.81,3.59.19.76.38,1.52.55,2.28-17.35.72-35.17-.83-51.26-7.76h0c-16.48-7.32-28.17-18.01-26.71-37.2h19.6c20.95,0,21.43,42.39,40.05,42.39s19.1-42.39,40.06-42.39v.02c11.37,0,18.72,16.28,24.81,37.14Z"/>
        <path class="cls-1" d="M291.25,244.43c-35.8,52.64-111.28,78.83-173.85,56.92,62.95,8.55,129.27-19.49,168.07-69.37,1.37,2.95,4.39,9.45,5.77,12.45Z"/>
        <path class="cls-1" d="M165.6,0C82.34,0,14.45,65.85,11.2,148.3h19.6c20.95,0,21.43-42.4,40.05-42.4s19.1,42.4,40.06,42.4c31.54,0,32.24-125.42,60.27-125.42s28.63,115.62,56.62,124.83c4.49-3.99,8.68-8.19,12.69-12.62l-3.52-7.58c-11.77,24.45-21.08-18.82-24.2-29.78,5.2-10.87,15.41-13.94,22.28-3.77,6.16-.08,16.18-.24,22.35-.32,5.4-15.48,16.31-15.78,21.79-.3,6.66-.08,21.57-.31,28.18-.39C283.6,38.27,229.07,0,165.6,0ZM121.39,124.07h-.02c-13.64,36.43-21.34-5.53-32.76-18.46,6.02-24.38,11.72-48.76,22.81-48.76,9.08,0,14.54,16.33,19.54,35.64-2.91,11.64-6,22.86-9.57,31.58Z"/>
      </g>
      <path class="cls-2" d="M324.8,105.61c-6.49,40.34-15.03,93.75-21.53,134.19-2.52-5.4-13.02-28.08-15.72-33.91-19.57,35.31-59.06,66.02-101.34,77.57-12.87,3.67-26.19,5.91-39.57,6.42-23.89.93-48.13-3.29-69.8-13.47-.6-.16-1.19-.59-1.79-.78-1.29-.63-2.59-1.28-3.86-1.95-4.35-2.32-8.64-4.84-12.67-7.67-.39-.28-.83-.53-1.22-.82C28.31,247.46,13.34,209.28,0,179.67c4.05,8.79,10.53,16.28,18.36,21.91,0,0,.06,0,.06.04,32.34,22.16,75.08,19.49,111.67,11.07,47.8-12.14,93.57-37.45,125.57-75.43-3.53-7.61-10.61-22.92-14.13-30.53,26.74-.36,56.57-.84,83.27-1.12Z"/>
    </g>
  </g>
</svg>