<?xml version="1.0" encoding="UTF-8"?>
<svg id="_레이어_2" data-name="레이어 2" xmlns="http://www.w3.org/2000/svg" viewBox="0 0 208.44 25.4">
  <defs>
    <style>
      .cls-1 {
        fill: #008b96;
      }
    </style>
  </defs>
  <g id="_레이어_1-2" data-name="레이어 1">
    <g>
      <path class="cls-1" d="M0,.27h3.44v7.32h.15s.05-.08.07-.12c.02-.04.04-.08.05-.12.26-.45.56-.84.88-1.18.33-.33.75-.62,1.28-.85.53-.23,1.17-.35,1.93-.35,1.15,0,2.18.29,3.1.87s1.65,1.44,2.18,2.59c.53,1.14.8,2.51.8,4.09s-.26,2.93-.79,4.07c-.52,1.15-1.24,2.02-2.16,2.62-.92.6-1.96.9-3.13.9-.74,0-1.39-.12-1.94-.36-.55-.24-.99-.53-1.32-.88-.33-.35-.62-.74-.87-1.18l-.08-.15h-.22v2.31H0V.27ZM3.78,15.03c.27.72.67,1.28,1.19,1.68.52.4,1.14.6,1.88.6s1.37-.21,1.9-.62c.53-.41.93-.97,1.2-1.69.27-.72.41-1.55.41-2.48s-.13-1.74-.39-2.45c-.26-.71-.66-1.27-1.19-1.66-.53-.39-1.17-.59-1.92-.59s-1.37.19-1.88.58c-.51.38-.91.93-1.18,1.63-.28.7-.41,1.53-.41,2.49s.14,1.8.41,2.52Z"/>
      <path class="cls-1" d="M16.09,25.33v-2.77l.6.04c.23,0,.52.01.87.01s.64-.03.87-.09c.23-.06.45-.21.66-.45.21-.24.4-.6.58-1.09l.31-.79-5.33-15.01h3.66l3.4,11.1h.16l3.4-11.1h3.68l-5.9,16.47c-.43,1.21-1.07,2.14-1.9,2.78-.83.65-1.92.97-3.26.97-.68,0-1.27-.02-1.79-.07Z"/>
      <path class="cls-1" d="M37.3.27h7.49c1.39,0,2.56.21,3.51.64s1.66,1.03,2.13,1.79c.47.77.71,1.65.71,2.65,0,.76-.15,1.42-.44,2-.29.57-.7,1.04-1.21,1.4-.51.36-1.11.62-1.77.77v.19c.71.04,1.39.25,2.04.65.65.4,1.17.95,1.56,1.67s.6,1.55.6,2.5c0,1.03-.25,1.94-.74,2.75-.5.8-1.25,1.44-2.25,1.9-1.01.46-2.24.69-3.69.69h-7.92V.27ZM46.03,8.26c.5-.24.88-.56,1.16-.98.28-.42.42-.91.42-1.47,0-.52-.12-.98-.35-1.37-.24-.39-.59-.7-1.07-.91-.48-.22-1.06-.33-1.75-.33h-3.63v5.42h3.55c.61,0,1.17-.12,1.67-.35ZM46.74,16.58c.54-.23.94-.54,1.2-.93.26-.39.39-.86.39-1.4,0-.59-.14-1.12-.43-1.59s-.7-.84-1.24-1.11c-.54-.27-1.17-.4-1.88-.4h-3.95v5.77h3.84c.84,0,1.53-.11,2.07-.34Z"/>
      <path class="cls-1" d="M57.06,19.24c-1.07-.61-1.9-1.49-2.48-2.63-.58-1.14-.87-2.47-.87-3.99s.29-2.84.87-4c.58-1.16,1.4-2.06,2.44-2.69,1.05-.63,2.26-.95,3.65-.95,1.25,0,2.39.27,3.4.8,1.01.53,1.81,1.36,2.41,2.47s.89,2.49.89,4.13v1.08h-12.03v-2.34h8.73c0-.67-.14-1.26-.42-1.79-.28-.52-.67-.93-1.18-1.23s-1.09-.45-1.75-.45c-.7,0-1.33.17-1.87.5-.54.33-.96.78-1.27,1.35-.3.56-.46,1.18-.47,1.85v2c0,.86.16,1.59.47,2.21s.75,1.09,1.32,1.41c.57.33,1.23.49,1.99.49.49,0,.93-.07,1.32-.2.39-.14.73-.31,1.01-.54.28-.22.49-.49.64-.79h3.38c-.21.84-.6,1.58-1.17,2.21-.57.64-1.31,1.13-2.2,1.48-.89.35-1.9.52-3.02.52-1.45,0-2.72-.31-3.79-.92Z"/>
      <path class="cls-1" d="M69.63,25.33v-2.77l.6.04c.23,0,.52.01.87.01s.64-.03.87-.09c.23-.06.45-.21.66-.45.21-.24.4-.6.58-1.09l.31-.79-5.33-15.01h3.66l3.4,11.1h.16l3.4-11.1h3.68l-5.9,16.47c-.43,1.21-1.07,2.14-1.9,2.78-.83.65-1.92.97-3.26.97-.68,0-1.27-.02-1.79-.07Z"/>
      <path class="cls-1" d="M86.55,19.21c-1.07-.63-1.89-1.52-2.47-2.67-.58-1.15-.87-2.47-.87-3.97s.29-2.85.87-3.99c.58-1.14,1.4-2.03,2.47-2.66,1.07-.63,2.31-.95,3.72-.95s2.66.32,3.72.95c1.07.63,1.88,1.52,2.45,2.66.57,1.14.85,2.47.85,3.99s-.28,2.82-.85,3.97c-.57,1.15-1.38,2.04-2.45,2.67-1.06.63-2.31.95-3.72.95s-2.65-.32-3.72-.95ZM92.22,16.77c.53-.43.92-1.01,1.18-1.74.26-.73.39-1.55.39-2.46s-.13-1.75-.39-2.48-.66-1.31-1.18-1.74c-.53-.43-1.17-.64-1.93-.64s-1.43.21-1.98.64c-.54.43-.95,1.01-1.22,1.74s-.41,1.56-.41,2.48.14,1.74.41,2.47c.27.73.68,1.3,1.22,1.73.54.43,1.2.64,1.98.64s1.4-.21,1.93-.64Z"/>
      <path class="cls-1" d="M103.17,19.87h-3.44V5.17h3.29v2.49h.16c.36-.85.91-1.51,1.65-1.98.74-.47,1.65-.7,2.73-.7,1.02,0,1.91.21,2.66.64.75.43,1.33,1.06,1.75,1.89.41.83.62,1.83.62,2.99v9.37h-3.44v-8.84c0-.66-.11-1.22-.34-1.68s-.55-.82-.97-1.08c-.42-.25-.94-.38-1.56-.38s-1.16.13-1.62.39c-.47.26-.83.65-1.1,1.15-.26.5-.39,1.11-.39,1.81v8.62Z"/>
      <path class="cls-1" d="M117.99,19.23c-.92-.6-1.64-1.47-2.17-2.62-.53-1.15-.79-2.5-.79-4.07s.27-2.95.8-4.09,1.26-2,2.18-2.59c.92-.58,1.95-.87,3.1-.87.78,0,1.44.12,1.98.37.55.24.98.54,1.31.9.33.36.6.76.84,1.2l.08.15h.12V.27h3.46v19.6h-3.38v-2.31h-.2l-.08.15c-.24.44-.53.84-.86,1.18-.33.35-.77.64-1.31.88s-1.2.36-1.96.36c-1.16,0-2.19-.3-3.11-.9ZM123.93,16.7c.52-.4.92-.96,1.2-1.68s.41-1.56.41-2.51-.14-1.79-.41-2.49-.67-1.25-1.19-1.63c-.52-.38-1.16-.58-1.91-.58s-1.37.2-1.9.59-.92.95-1.19,1.66-.41,1.53-.41,2.45.14,1.77.41,2.48.67,1.28,1.19,1.69c.52.41,1.16.62,1.9.62s1.37-.2,1.89-.6Z"/>
      <path class="cls-1" d="M142.37,4.21c-.31-.41-.74-.71-1.27-.91s-1.16-.3-1.88-.3-1.35.11-1.89.33c-.54.22-.95.52-1.25.91-.29.39-.44.83-.44,1.34,0,.74.31,1.31.93,1.72.62.41,1.43.74,2.43.99l1.83.46c1.74.41,3.14,1.05,4.18,1.94,1.05.88,1.58,2.12,1.58,3.7,0,1.15-.3,2.16-.89,3.03-.59.88-1.44,1.56-2.56,2.04s-2.45.73-4,.73-2.84-.24-3.96-.71c-1.12-.47-2-1.17-2.62-2.08-.62-.91-.96-2.01-1.01-3.29h3.46c.05.67.27,1.23.64,1.69s.85.8,1.45,1.03c.6.23,1.27.35,2.02.35s1.46-.12,2.06-.35c.6-.23,1.06-.57,1.39-.99s.49-.92.49-1.47c0-.49-.14-.9-.42-1.24-.28-.34-.67-.62-1.18-.85s-1.15-.44-1.93-.64l-2.23-.57c-1.68-.44-2.97-1.09-3.87-1.95-.9-.86-1.35-1.97-1.35-3.33,0-1.14.31-2.14.93-3.01.62-.87,1.48-1.55,2.57-2.03,1.09-.48,2.32-.72,3.68-.72s2.57.24,3.63.72c1.06.48,1.89,1.14,2.48,2,.6.85.91,1.83.93,2.93h-3.41c-.05-.55-.24-1.03-.55-1.43Z"/>
      <path class="cls-1" d="M149.11,5.17h3.37v2.42h.22l.08-.15c.24-.44.52-.84.85-1.2.33-.36.77-.66,1.31-.9.55-.24,1.2-.37,1.96-.37,1.16,0,2.19.29,3.11.87.92.58,1.64,1.44,2.17,2.59.53,1.14.79,2.51.79,4.09s-.26,2.93-.78,4.07c-.52,1.15-1.24,2.02-2.16,2.62-.92.6-1.96.9-3.11.9-.77,0-1.43-.13-1.99-.39-.56-.26-1-.56-1.33-.91-.33-.35-.61-.75-.87-1.2l-.03-.08h-.15v7.84h-3.44V5.17ZM152.87,15.02c.27.73.67,1.29,1.2,1.68.53.4,1.16.6,1.89.6s1.39-.21,1.92-.62c.53-.41.92-.97,1.19-1.69s.4-1.55.4-2.48-.13-1.74-.4-2.45-.66-1.27-1.18-1.66-1.16-.59-1.92-.59-1.37.19-1.9.58c-.52.38-.92.93-1.19,1.63-.27.7-.41,1.53-.41,2.49s.13,1.79.41,2.51Z"/>
      <path class="cls-1" d="M172.09,13.48l-1.37.11c-.85.07-1.51.28-1.98.64-.47.35-.7.84-.7,1.48,0,.41.1.75.31,1.04.21.28.5.5.89.66.38.15.81.23,1.29.23.69,0,1.29-.14,1.81-.41s.92-.64,1.21-1.1c.28-.46.43-.96.43-1.52l-.03-4.7c0-.49-.1-.9-.3-1.25-.2-.34-.5-.6-.9-.77-.4-.17-.89-.26-1.47-.26-.74,0-1.35.15-1.82.46-.47.31-.78.73-.91,1.27h-3.36c.1-.84.41-1.59.93-2.25.52-.66,1.23-1.18,2.12-1.56.9-.37,1.94-.56,3.13-.56,1.05,0,2.02.16,2.91.47.89.32,1.63.85,2.22,1.6.59.75.88,1.74.88,2.97v9.84h-3.3v-2.03h-.11c-.23.44-.53.83-.91,1.18-.38.34-.86.62-1.44.83-.58.21-1.24.32-1.98.32-.95,0-1.79-.17-2.53-.51-.74-.34-1.33-.85-1.75-1.52s-.64-1.47-.64-2.4c0-1.53.51-2.64,1.53-3.31,1.02-.67,2.34-1.06,3.95-1.16.23-.03,1.08-.07,2.53-.14l1.41-.05.03,2.27c-.31,0-1,.05-2.07.12Z"/>
      <path class="cls-1" d="M183.03,19.2c-1.07-.64-1.89-1.53-2.45-2.68-.56-1.15-.85-2.46-.85-3.94s.29-2.81.87-3.96c.58-1.15,1.39-2.04,2.45-2.68,1.06-.64,2.29-.95,3.71-.95,1.18,0,2.24.21,3.17.64s1.67,1.04,2.21,1.84c.55.8.85,1.73.93,2.78h-3.29c-.09-.49-.27-.92-.53-1.29-.26-.38-.6-.67-1-.89-.41-.22-.88-.33-1.43-.33-.71,0-1.34.19-1.88.58-.54.38-.96.93-1.27,1.64-.3.71-.45,1.56-.45,2.54s.15,1.85.45,2.58.72,1.28,1.26,1.67c.54.39,1.17.58,1.89.58.51,0,.98-.1,1.39-.29.41-.19.75-.48,1.02-.85.27-.38.46-.82.55-1.33h3.29c-.08,1.04-.39,1.95-.92,2.75-.53.79-1.26,1.42-2.17,1.87s-1.98.68-3.19.68c-1.43,0-2.69-.32-3.76-.96Z"/>
      <path class="cls-1" d="M198.12,19.24c-1.07-.61-1.9-1.49-2.48-2.63-.58-1.14-.87-2.47-.87-3.99s.29-2.84.87-4c.58-1.16,1.4-2.06,2.44-2.69,1.05-.63,2.26-.95,3.65-.95,1.25,0,2.39.27,3.4.8,1.01.53,1.81,1.36,2.41,2.47s.89,2.49.89,4.13v1.08h-12.03v-2.34h8.73c0-.67-.14-1.26-.42-1.79-.28-.52-.67-.93-1.18-1.23s-1.09-.45-1.75-.45c-.7,0-1.33.17-1.87.5-.54.33-.96.78-1.27,1.35-.3.56-.46,1.18-.47,1.85v2c0,.86.16,1.59.47,2.21s.75,1.09,1.32,1.41c.57.33,1.23.49,1.99.49.49,0,.93-.07,1.32-.2.39-.14.73-.31,1.01-.54.28-.22.49-.49.64-.79h3.38c-.21.84-.6,1.58-1.17,2.21-.57.64-1.31,1.13-2.2,1.48-.89.35-1.9.52-3.02.52-1.45,0-2.72-.31-3.79-.92Z"/>
    </g>
  </g>
</svg>