<?xml version="1.0" encoding="UTF-8"?>
<svg id="_레이어_2" data-name="레이어 2" xmlns="http://www.w3.org/2000/svg" viewBox="0 0 440.76 73.65">
  <defs>
    <style>
      .cls-1 {
        fill: #004f51;
      }
    </style>
  </defs>
  <g id="_레이어_1-2" data-name="레이어 1">
    <g>
      <path class="cls-1" d="M37.38,15.28c-1.9-3.17-7.13-6.18-13.15-6.18-7.76,0-11.48,3.25-11.48,7.37,0,4.83,5.7,6.18,12.35,6.97,11.56,1.43,22.33,4.43,22.33,17.66,0,12.35-10.93,17.66-23.28,17.66-11.32,0-20.04-3.48-24.15-13.62l8.71-4.51c2.46,6.1,8.87,8.79,15.6,8.79s12.75-2.3,12.75-8.32c0-5.23-5.46-7.37-12.83-8.16-11.33-1.35-21.78-4.36-21.78-16.79C2.46,4.75,13.7.08,23.92,0c8.63,0,17.58,2.46,21.78,11.01l-8.32,4.28Z"/>
      <path class="cls-1" d="M94.4,37.85c0,11.25-7.68,20.35-20.35,20.35s-20.27-9.11-20.27-20.35,7.76-20.35,20.19-20.35,20.43,9.19,20.43,20.35ZM63.44,37.85c0,5.94,3.56,11.48,10.61,11.48s10.61-5.54,10.61-11.48-4.12-11.56-10.61-11.56c-6.97,0-10.61,5.7-10.61,11.56Z"/>
      <path class="cls-1" d="M129.01,57.34v-20.43c0-5.94-3.25-10.45-9.42-10.45s-9.98,4.99-9.98,10.93v19.96h-9.58V18.21h8.63l.63,5.31c3.96-3.88,7.92-5.86,12.83-5.86,9.19,0,16.55,6.89,16.55,19.17v20.51h-9.66Z"/>
      <path class="cls-1" d="M185,37.85c0,11.25-7.68,20.35-20.35,20.35s-20.27-9.11-20.27-20.35,7.76-20.35,20.19-20.35,20.43,9.19,20.43,20.35ZM154.04,37.85c0,5.94,3.56,11.48,10.61,11.48s10.61-5.54,10.61-11.48-4.12-11.56-10.61-11.56c-6.97,0-10.61,5.7-10.61,11.56Z"/>
      <path class="cls-1" d="M216.37,28.67c-2.77-2.61-5.94-3.48-9.66-3.48-4.59,0-7.13,1.43-7.13,3.88s2.3,3.96,7.29,4.28c7.36.47,16.71,2.14,16.71,12.51,0,6.89-5.62,12.83-16.79,12.83-6.18,0-12.35-1.03-18.06-6.97l4.75-6.89c2.77,3.09,9.11,5.39,13.46,5.46,3.64.08,7.05-1.82,7.05-4.67,0-2.69-2.22-3.8-7.76-4.12-7.37-.55-16.16-3.25-16.16-12.12s9.34-12.2,16.47-12.2c6.1,0,10.69,1.19,15.21,5.15l-5.38,6.33Z"/>
      <path class="cls-1" d="M228.96,73.65V18.29h9.03l.63,5.38c3.01-4.36,8.24-6.26,12.67-6.26,12.04,0,20.04,8.95,20.04,20.43s-7.21,20.43-19.72,20.43c-4.12,0-10.22-1.27-12.99-5.54v20.91h-9.66ZM261.67,37.85c0-6.1-4.12-11.09-11.09-11.09s-11.09,4.99-11.09,11.09,4.51,11.09,11.09,11.09,11.09-4.99,11.09-11.09Z"/>
      <path class="cls-1" d="M287.33,1.9v21.7c3.48-4.51,7.76-5.86,12.2-5.86,11.09,0,16,7.52,16,19.01v20.59h-9.66v-20.51c0-7.13-3.72-10.14-8.87-10.14-5.7,0-9.66,4.83-9.66,10.69v19.96h-9.66V1.9h9.66Z"/>
      <path class="cls-1" d="M331.13,41.26c.63,4.83,4.83,8.32,11.64,8.32,3.56,0,8.24-1.35,10.45-3.64l6.18,6.1c-4.12,4.28-10.85,6.33-16.79,6.33-13.46,0-21.46-8.32-21.46-20.83s8.08-20.43,20.75-20.43,21.22,8.08,19.72,24.15h-30.49ZM352.35,33.26c-.63-5.07-4.59-7.6-10.14-7.6-5.23,0-9.5,2.54-10.93,7.6h21.07Z"/>
      <path class="cls-1" d="M377.22,18.29l.71,4.51c3.01-4.83,7.05-5.54,11.01-5.54s7.92,1.58,10.06,3.72l-4.36,8.39c-1.98-1.66-3.8-2.53-6.97-2.53-5.07,0-9.74,2.69-9.74,9.9v20.59h-9.66V18.29h8.95Z"/>
      <path class="cls-1" d="M410.09,41.26c.63,4.83,4.83,8.32,11.64,8.32,3.56,0,8.24-1.35,10.45-3.64l6.18,6.1c-4.12,4.28-10.85,6.33-16.79,6.33-13.46,0-21.46-8.32-21.46-20.83s8.08-20.43,20.75-20.43,21.22,8.08,19.72,24.15h-30.49ZM431.31,33.26c-.63-5.07-4.59-7.6-10.14-7.6-5.23,0-9.5,2.54-10.93,7.6h21.07Z"/>
    </g>
  </g>
</svg>